<?xml version="1.0" encoding="utf-8"?>
<!-- Generator: Adobe Illustrator 15.0.2, SVG Export Plug-In . SVG Version: 6.00 Build 0)  -->
<!DOCTYPE svg PUBLIC "-//W3C//DTD SVG 1.1//EN" "http://www.w3.org/Graphics/SVG/1.1/DTD/svg11.dtd">
<svg version="1.1" id="Ebene_1" xmlns="http://www.w3.org/2000/svg" xmlns:xlink="http://www.w3.org/1999/xlink" x="0px" y="0px"
	 width="165.54px" height="54.4px" viewBox="0 0 165.54 54.4" enable-background="new 0 0 165.54 54.4" xml:space="preserve">
<g>
	<g>
		<path fill-rule="evenodd" clip-rule="evenodd" fill="#043677" d="M5.42,24.96l1.11-0.04c2.04-0.05,3.14-0.27,3.7-0.96
			c0.58-0.68,0.75-1.47,0.75-3.87v-0.02v-0.03c0-1.76-0.05-2.65-0.26-3.31c-0.22-0.65-0.46-0.81-1.12-0.83
			c-0.44,0-1.06,0.12-1.87,0.33l-2.31,0.59V24.96z M0.01,14.64c2.66-0.97,5.28-1.95,7.96-2.83c2.09-0.68,3.73-1.05,4.9-1.05
			c1.65-0.01,2.65,0.72,3.16,2.08c0.52,1.38,0.62,3.21,0.62,5.98v0.12c0,2.37-0.17,4.13-0.91,5.47c-0.64,1.14-1.69,1.93-3.32,2.48
			c1.31,0.24,2.26,0.73,2.92,1.51c0.79,0.95,1.1,2.28,1.1,3.96v7.93c0,1.27,0.08,4.81,0.08,4.81c-1.65-0.46-3.88-1.13-5.51-1.64
			c-0.04-0.02-0.05-0.08-0.05-0.08c-0.09-1.1-0.12-1.76-0.12-3.05v-7.51c0.01-1.51-0.24-2.39-0.75-2.9
			c-0.5-0.52-1.45-0.77-3.15-0.84l-1.52-0.06v12.63C3.7,41.06,1.71,40.37,0,39.74L0.01,14.64z"/>
	</g>
	<g>
		<path fill-rule="evenodd" clip-rule="evenodd" fill="#043677" d="M34.25,49.46c-4.81-1-9.91-2.2-14.8-3.53l0.01-37.47
			c4.75-1.31,9.98-2.54,14.79-3.53v5.62c-2.97,0.47-6.13,1.01-9.08,1.57v12.01c2.76-0.09,5.42-0.14,8.2-0.22v5.47
			c-2.78-0.05-6.32-0.06-8.2-0.12v13.01c2.95,0.56,6.11,1.1,9.08,1.57V49.46z"/>
	</g>
	<g>
		<path fill-rule="evenodd" clip-rule="evenodd" fill="#043677" d="M42.24,50.96c-1.77-0.3-4-0.71-5.77-1.06V4.49
			c1.77-0.35,4-0.76,5.77-1.06V50.96z"/>
	</g>
	<g>
		<path fill-rule="evenodd" clip-rule="evenodd" fill="#043677" d="M54.87,53.11c-0.45,0-0.92-0.03-1.41-0.09
			c-5-0.63-8.5-3.95-8.48-10v-5.97c1.78,0.11,4.02,0.25,5.8,0.35v4.28c0,1.62,0.24,2.95,0.72,3.88c0.48,0.92,1.17,1.45,2.17,1.56
			c0.14,0.01,0.4,0.02,0.4,0.02c1.17-0.01,1.83-0.54,2.28-1.47c0.44-0.94,0.6-2.3,0.6-3.86v-0.06c-0.01-4.23-0.14-5.66-5.67-12.88
			c-3.42-4.46-6.3-8.27-6.3-14.84c0-3.93,0.74-6.91,2.24-9.02s3.76-3.32,6.72-3.7c0.39-0.05,0.76-0.07,1.12-0.07
			c2.4-0.01,4.19,1,5.35,2.33c0.96,1.13,1.61,2.97,1.61,6.67v5.14c-1.68,0.07-3.82,0.17-5.5,0.25v-4.29c0-1.34-0.2-2.39-0.6-3.07
			c-0.4-0.68-0.96-1.02-1.82-1.03c-0.1,0-0.21,0.01-0.32,0.02c-1.05,0.11-1.76,0.54-2.25,1.4c-0.5,0.87-0.75,2.22-0.75,4.11
			c0.01,3.36,0.48,5.12,5.41,11.81c5.25,7.18,6.27,9.98,6.26,16.25v0.03c0,3.79-0.5,6.83-1.71,8.96c-1.2,2.12-3.13,3.29-5.85,3.29
			H54.87z"/>
	</g>
	<g>
		<path fill-rule="evenodd" clip-rule="evenodd" fill="#043677" d="M77.89,29.9l-6.69-0.02v24.24c-1.79-0.09-4.04-0.23-5.83-0.35
			V0.62c1.79-0.12,4.04-0.26,5.83-0.35v22.91l6.69-0.03V0.04c1.55-0.03,4.25-0.05,5.84-0.04v54.39c-1.28,0.02-4.28-0.02-5.84-0.05
			V29.9z"/>
	</g>
	<g>
		<path fill-rule="evenodd" clip-rule="evenodd" fill="#043677" d="M94.1,35.36c2.1-0.03,4.61-0.09,6.7-0.13l-0.07-0.53
			c-1.04-7.9-3.25-24.87-3.25-24.87c-1.06,7.94-2.27,17.02-3.32,25.07L94.1,35.36z M85.61,54.4c2.85-17.99,5.86-36.49,8.71-54.13
			c2.08,0.1,4.8,0.27,6.87,0.43c2.63,17.71,5.27,35.51,7.89,52.25c-1.78,0.2-4.1,0.42-5.89,0.58l-1.57-11.73l-8.38,0.24l-1.58,12.19
			C89.87,54.29,87.46,54.37,85.61,54.4z"/>
	</g>
	<g>
		<path fill-rule="evenodd" clip-rule="evenodd" fill="#043677" d="M111.78,48.63c-1.13-2.08-1.49-4.8-1.5-7.52V1.57
			c1.83,0.21,3.86,0.49,5.64,0.74v39.61c0,1.49,0.38,2.6,0.81,3.31c0.44,0.71,1.1,1.07,2.17,1.08c0.21,0,0.43-0.01,0.67-0.04
			c1.38-0.27,1.98-0.65,2.51-1.46c0.54-0.82,0.9-1.94,0.96-3.6V3.39c1.78,0.3,4.01,0.7,5.78,1.05v35.13
			c0.02,5.22-1.81,11.12-9.19,12.39c-0.64,0.1-1.24,0.15-1.81,0.15h-0.02C114.83,52.11,112.91,50.7,111.78,48.63z"/>
	</g>
	<g>
		<path fill-rule="evenodd" clip-rule="evenodd" fill="#043677" d="M131.66,5.01c4.81,1,10.04,2.24,14.79,3.55v4.78
			c-2.91-0.61-6.11-1.24-9.04-1.76v12.45c0,0,5.49,0.19,8.25,0.3v4.79c-2.76,0.06-5.48,0.15-8.25,0.21v13.48
			c2.93-0.52,6.13-1.14,9.04-1.76v4.78c-4.75,1.3-9.98,2.56-14.79,3.55V5.01z"/>
	</g>
	<g>
		<path fill-rule="evenodd" clip-rule="evenodd" fill="#043677" d="M156.34,25.09c1.66,0,2.53-0.21,2.98-0.79
			c0.47-0.58,0.61-1.44,0.61-3.39c0-2.09-0.1-3.1-0.52-3.74c-0.41-0.65-1.22-1.03-2.83-1.44c-0.73-0.18-1.47-0.38-2.21-0.56v9.87
			C155.07,25.06,155.97,25.09,156.34,25.09z M148.7,9.19c2.7,0.77,5.68,1.67,8.37,2.54c3.79,1.29,5.9,2.36,7.09,3.85
			c1.19,1.48,1.38,3.32,1.38,5.99c0,1.68-0.16,2.64-0.92,3.58c-0.62,0.77-1.59,1.3-3.11,1.74c1.21,0.2,2.09,0.53,2.71,1.06
			c0.8,0.67,1.16,1.64,1.15,2.84l-0.04,5.68l0.01,3.27c-1.6,0.62-3.3,1.3-4.92,1.82l-0.39,0.12c-0.05-0.01-0.07-0.08-0.07-0.08
			c-0.13-1.06-0.12-1.52-0.11-2.66v-6.17c0-1.23-0.15-1.96-0.55-2.38c-0.39-0.42-1.29-0.67-2.67-0.67l-0.71,0.01l-1.55,0.07v13.71
			c-1.74,0.54-3.92,1.2-5.67,1.69V9.19z"/>
	</g>
</g>
</svg>
